<svg width="62" height="58" viewBox="0 0 62 58" fill="none" xmlns="http://www.w3.org/2000/svg">
<path d="M29.3531 19.4113H32.0728C31.9458 21.1891 31.8082 22.9775 31.6892 24.7659L32.0595 24.8612C32.3241 24.213 32.6071 23.5728 32.8532 22.9167C33.5437 21.0648 34.2448 19.2341 34.8876 17.3743C35.1125 16.7208 35.4802 16.5277 36.0649 16.7922C38.1337 17.7288 40.2978 18.5198 42.2264 19.6838C45.2026 21.4802 46.0809 24.4696 46.3111 27.7766C46.4407 29.6284 45.8349 30.9962 44.565 32.3401C36.6284 40.7556 22.9086 40.2318 15.6888 31.1973C15.3129 30.7449 15.03 30.2226 14.8566 29.6605C14.6832 29.0985 14.6226 28.5077 14.6783 27.9221C14.8978 24.7659 15.1465 21.5093 18.1386 19.6838C20.2339 18.406 22.6758 17.6891 24.9721 16.742C25.7287 16.4298 25.9695 17.0065 26.1943 17.5356C27.1203 19.7561 28.0454 21.9767 28.9695 24.1972C29.0806 24.4617 29.2341 24.7262 29.3664 24.9723L29.7262 24.9194C29.6045 23.1045 29.4801 21.2764 29.3531 19.4113Z" fill="white"/>
<path d="M48.1101 32.1232C49.7688 33.4459 51.3138 34.6761 52.8271 35.9328C53.3932 36.4037 53.8615 36.5016 54.5811 36.1523C56.679 35.1259 58.814 35.6232 60.2638 37.3375C60.9043 38.1267 61.2755 39.1002 61.3231 40.1156C61.3707 41.1309 61.0922 42.1348 60.5283 42.9805C59.9598 43.8461 59.1206 44.499 58.1419 44.8374C57.1631 45.1757 56.0999 45.1805 55.1181 44.8509C54.1264 44.5484 53.2668 43.9179 52.6804 43.0627C52.094 42.2076 51.8155 41.1786 51.8906 40.1445C51.9462 39.7649 51.89 39.3773 51.7289 39.0291C51.5677 38.681 51.3086 38.3873 50.9831 38.1841C50.2133 37.6127 49.4725 37.0016 48.6021 36.3137C44.155 41.1075 38.6893 43.7636 32.0542 44.3932C32.0542 45.5335 31.996 46.7081 32.0965 47.8695C32.1204 48.1684 32.6072 48.4833 32.9431 48.6923C35.0358 50.015 35.9009 52.2664 35.1125 54.4622C34.3479 56.5945 32.2764 57.8035 29.8769 57.5125C27.9748 57.2824 26.4694 55.8379 25.9747 53.7717C25.5303 51.9198 26.3689 50.0336 28.1362 48.7981C28.5039 48.5335 29.0436 48.1975 29.0753 47.8563C29.1432 46.7656 29.1237 45.6713 29.0171 44.5837C29.0171 44.4752 28.5965 44.3192 28.361 44.3192C22.3292 43.6869 17.2153 41.1709 12.9851 36.8375C12.8369 36.6867 12.657 36.573 12.4322 36.3799C11.5512 37.0836 10.5803 37.6735 9.88715 38.4963C9.50883 38.9328 9.44532 39.745 9.43738 40.3905C9.39241 43.6657 6.39766 45.8747 3.27062 44.888C2.6773 44.6939 2.12811 44.3847 1.65448 43.978C1.18085 43.5714 0.792078 43.0753 0.510452 42.5182C0.228826 41.9611 0.05986 41.3539 0.013248 40.7314C-0.033364 40.1089 0.043304 39.4833 0.238824 38.8905C1.1727 36.2449 3.96905 34.901 6.48762 36.0439C7.36594 36.446 7.87387 36.3084 8.55378 35.737C9.91623 34.5703 11.3581 33.4962 12.7735 32.3877C12.8343 32.3375 12.9348 32.3375 13.1015 32.2898C17.4296 38.0836 23.2022 41.4011 30.5172 41.4196C37.8321 41.4382 43.6391 38.0915 48.1101 32.1232Z" fill="white"/>
<path d="M37.4511 7.83699C37.3162 11.6043 36.2527 14.4985 33.8929 16.8319C31.8849 18.8187 29.361 18.8769 27.3742 16.8557C24.1149 13.5435 22.9588 9.55133 24.226 5.05125C25.1255 1.87658 27.7975 -0.0467558 30.8187 0.000864174C33.5648 0.0458386 36.1628 2.17023 37.0331 5.20733C37.2381 6.07219 37.3778 6.9512 37.4511 7.83699Z" fill="white"/>
</svg>
