<svg width="16" height="15" viewBox="0 0 16 15" fill="none" xmlns="http://www.w3.org/2000/svg">
<path d="M0.391113 7.143C0.391113 6.74265 0.65803 6.41179 1.00434 6.35942L1.10061 6.3522L13.5726 6.35284L9.06686 1.35126C8.78919 1.0431 8.78822 0.542397 9.0647 0.232907C9.31605 -0.048448 9.71016 -0.0749173 9.98836 0.154121L10.0681 0.230499L15.7914 6.5822C15.828 6.62282 15.8598 6.66678 15.8867 6.7132C15.8944 6.72718 15.9021 6.74148 15.9095 6.75606C15.9162 6.76856 15.9223 6.78154 15.9281 6.79466C15.9361 6.81376 15.944 6.83348 15.9511 6.85361C15.9568 6.86913 15.9616 6.88423 15.966 6.89944C15.9713 6.91831 15.9764 6.93842 15.9807 6.95883C15.984 6.97308 15.9865 6.9868 15.9888 7.00057C15.9919 7.02106 15.9946 7.04226 15.9965 7.06371C15.9982 7.08007 15.9992 7.09628 15.9997 7.11251C15.9999 7.12235 16.0001 7.13265 16.0001 7.143L15.9997 7.17363C15.9992 7.18916 15.9982 7.20466 15.9969 7.22013L16.0001 7.143C16.0001 7.1929 15.9959 7.24173 15.988 7.28907C15.9861 7.30037 15.984 7.31198 15.9815 7.32354C15.9765 7.34735 15.9707 7.37027 15.964 7.39274C15.9607 7.40391 15.9568 7.41584 15.9527 7.42768C15.9444 7.45148 15.9354 7.47416 15.9255 7.49625C15.9209 7.50664 15.9158 7.51752 15.9103 7.52829C15.9015 7.54585 15.8923 7.56254 15.8827 7.57881C15.8759 7.59033 15.8683 7.60231 15.8605 7.61411L15.8543 7.62322C15.8352 7.65106 15.8145 7.67744 15.7923 7.70218L15.7914 7.70292L10.0681 14.0557C9.79047 14.3639 9.34125 14.3628 9.06474 14.0534C8.81338 13.772 8.7913 13.3326 8.99796 13.0235L9.06682 12.935L13.5707 7.93443L1.10061 7.9338C0.708766 7.9338 0.391113 7.57975 0.391113 7.143Z" fill="white"/>
</svg>
