<svg width="50" height="54" viewBox="0 0 50 54" fill="none" xmlns="http://www.w3.org/2000/svg">
<path d="M43.1289 20.5348C47.5891 21.2172 49.4035 23.3244 49.3773 27.7455C49.3773 29.2174 49.4375 30.7128 49.1917 32.1508C49.0186 33.2083 48.5675 34.2008 47.8845 35.0266C47.1158 35.8972 46.8021 36.8123 46.606 37.879C45.9688 41.3469 44.406 44.5782 42.0831 47.2308C40.0334 49.6204 37.2071 50.0413 34.4018 50.5302C32.6928 50.8021 30.9712 50.988 29.2436 51.0871C28.3042 51.1042 27.3972 51.4335 26.6657 52.0231C24.6317 53.6754 21.3532 53.7643 19.225 52.41C15.9466 50.3185 16.1087 46.2792 19.5571 44.4804C22.3754 43.0085 27.1076 43.5131 28.556 47.738C31.7639 47.5262 35.0529 47.372 38.0281 46.023C39.2203 45.4844 40.2085 44.1641 40.904 42.9771C41.9262 41.2699 42.6086 39.3588 43.4373 37.5365L43.0321 37.1417C42.4674 37.3378 41.8896 37.5051 41.3379 37.7326C40.4798 38.0631 39.7082 38.5847 39.0817 39.2578C38.4552 39.931 37.9903 40.738 37.7222 41.6176C37.4006 42.5719 36.6764 43.4111 36.0699 44.2321C35.7489 44.7022 35.2602 45.0316 34.7039 45.1527C34.1477 45.2737 33.5662 45.1772 33.0789 44.883C32.1691 44.3053 31.9809 43.0085 32.556 41.8582C33.458 40.0568 34.2241 38.1797 35.2228 36.4358C35.5758 35.8136 36.3757 35.2829 37.0816 35.0606C38.9117 34.475 39.0765 34.3887 39.0739 32.5089C39.0739 31.4632 39.0739 30.4226 39.0739 29.3873C39.0611 29.2668 39.041 29.1472 39.0137 29.0292C37.5 28.7259 37.1993 27.6435 37.0921 26.1846C36.9248 23.9545 36.4646 21.7401 36.0934 19.5309C35.9679 18.7727 35.5444 18.4668 34.6999 18.6655C32.3469 19.2172 29.9756 19.6956 27.6096 20.1976C22.2317 21.3375 18.7728 20.1976 16.5191 14.6315C16.1218 15.5256 15.774 16.3387 15.4002 17.1387C14.4224 19.2302 12.8171 20.4747 10.4719 20.6028C9.22485 20.6734 8.59739 21.2041 8.5817 22.5087C8.5817 23.7584 8.39085 25.0081 8.35687 26.2604C8.29151 28.6579 6.95291 29.5128 4.75679 28.5246C3.79991 30.4017 4.04306 31.9233 5.78427 33.4397C6.5686 34.1247 7.65097 34.4619 8.52419 35.0685C9.1961 35.5339 10.119 36.0724 10.2968 36.7443C11.0288 39.5444 12.5505 41.7614 14.6342 43.6883C15.6381 44.6164 15.706 45.9367 14.9139 46.8256C14.1217 47.7145 12.8537 47.7066 11.7765 46.8256C11.4419 46.5485 11.0419 46.3027 10.8092 45.9628C9.50199 44.002 8.23921 41.9993 6.91369 40.0437C6.53199 39.479 6.06925 38.862 5.49146 38.5483C0.631228 35.9129 -1.2224 31.2279 0.819468 26.5559C0.853456 26.4774 0.856066 26.3703 0.913584 26.3154C2.58944 24.6735 2.31754 22.629 2.25741 20.5479C2.13714 16.3648 2.9267 12.3674 5.16465 8.74898C7.87059 4.37764 11.8706 1.79458 16.8041 0.709595C22.2944 -0.503502 27.7429 -0.273432 32.8959 2.27825C38.6921 5.13322 41.704 10.0039 42.7053 16.2393C42.938 17.6224 42.9903 19.0524 43.1289 20.5348Z" fill="white"/>
<path d="M18.5662 29.0474C18.5479 31.4266 16.7518 33.1469 14.3282 33.105C13.7886 33.0955 13.2562 32.9797 12.7613 32.7643C12.2665 32.5489 11.8189 32.238 11.4443 31.8496C11.0696 31.4611 10.7752 31.0026 10.5779 30.5002C10.3805 29.9979 10.2841 29.4616 10.2942 28.922C10.2942 26.5873 12.1242 24.7912 14.5191 24.8121C16.9139 24.833 18.5871 26.5716 18.5662 29.0474Z" fill="white"/>
<path d="M30.8776 33.1128C29.7899 33.0937 28.7529 32.6491 27.9891 31.8745C27.2252 31.0999 26.7952 30.0568 26.7913 28.9689C26.7805 28.4176 26.8816 27.8698 27.0882 27.3586C27.2949 26.8474 27.603 26.3833 27.9938 25.9944C28.3847 25.6055 28.8503 25.2997 29.3626 25.0956C29.8748 24.8915 30.4231 24.7932 30.9744 24.8068C31.5278 24.8004 32.0769 24.9047 32.5894 25.1134C33.1019 25.3222 33.5676 25.6313 33.959 26.0225C34.3505 26.4138 34.6598 26.8793 34.8689 27.3917C35.0779 27.9042 35.1824 28.4532 35.1763 29.0066C35.1702 29.56 35.0536 30.1066 34.8334 30.6143C34.6131 31.122 34.2936 31.5806 33.8936 31.9631C33.4937 32.3456 33.0213 32.6444 32.5042 32.8418C31.9872 33.0392 31.436 33.1314 30.8829 33.1128H30.8776Z" fill="white"/>
</svg>
