<svg width="48" height="53" viewBox="0 0 48 53" fill="none" xmlns="http://www.w3.org/2000/svg">
<path d="M37.2129 52.3036C36.1128 51.9531 35.0223 51.5491 33.9003 51.2838C33.4914 51.1888 32.9997 51.4201 32.5494 51.5272C31.5004 51.756 30.4538 51.992 29.4072 52.2257L29.0543 51.5977C29.5678 51.1913 30.113 50.814 30.595 50.3807C31.1937 49.8282 31.3032 49.322 30.724 48.5358C26.7298 43.108 29.507 35.5311 36.0495 33.8444C41.0172 32.5641 46.4036 35.9936 47.3845 41.0611C48.414 46.3915 44.9262 51.4249 39.7126 52.1381C39.5199 52.1832 39.3317 52.246 39.1504 52.3255L37.2129 52.3036ZM35.5676 45.3084C35.183 46.1091 34.7351 46.9269 36.0276 47.2799C36.7334 47.4721 37.2762 47.6669 37.4101 48.4968C37.4369 48.6745 37.9601 48.879 38.2522 48.8766C38.4786 48.8766 38.9045 48.5407 38.8875 48.3898C38.7877 47.5866 39.3524 47.3894 39.8733 47.0779C41.8886 45.8609 41.8496 43.5121 39.8002 42.3438C39.3134 42.0639 38.7488 41.9032 38.3009 41.5771C37.9528 41.3337 37.7314 40.9029 37.4563 40.5548C37.8795 40.3259 38.3207 40.1322 38.7755 39.9755C39.0189 39.9098 39.3183 40.0559 39.5812 40.141C40.0826 40.2993 40.5548 40.5621 40.7982 39.7565C40.9929 39.053 40.8907 38.6636 40.1142 38.3934C39.6493 38.2304 39.3305 37.6803 38.9143 37.3395C38.6976 37.1619 38.4056 36.9477 38.1622 36.9647C37.9188 36.9817 37.6535 37.23 37.4685 37.4515C37.1107 37.8604 36.8892 38.4251 36.4633 38.7293C34.7741 39.8855 34.7303 41.9105 36.4633 43.0034C37.0693 43.388 37.7703 43.6265 38.3666 44.0281C38.6855 44.2447 38.8729 44.6609 39.1187 44.9871C38.7366 45.2305 38.3569 45.688 37.9723 45.6929C37.2154 45.7124 36.4681 45.4739 35.5676 45.3084Z" fill="white"/>
<path d="M30.3468 9.3587C30.2616 10.3615 30.1691 11.3643 30.1034 12.3695C30.0766 12.6884 29.972 13.0729 30.1034 13.3236C31.1062 15.2708 30.1983 17.0062 29.6166 18.7806C29.5047 19.1116 29.3051 19.5643 29.0349 19.6666C27.9347 20.0852 27.8642 21.0685 27.5745 21.9691C26.2772 25.8829 23.4733 27.8885 19.5254 27.7717C16.1008 27.6694 13.034 24.9969 11.9801 21.2876C11.7367 20.4746 11.172 19.7663 10.897 18.9607C10.3688 17.4151 9.92337 15.8428 9.49742 14.2656C9.42684 14.0027 9.56314 13.4745 9.75299 13.3845C10.8702 12.8612 10.4832 12.002 10.381 11.1574C9.59965 4.80228 15.5312 0.170455 20.073 0.00737892C22.6214 -0.0851119 24.9239 0.686461 26.7177 2.62877C26.9611 2.89407 27.1607 3.28349 27.465 3.40275C30.0109 4.40555 30.3225 6.56693 30.3371 8.86947V9.35626L30.3468 9.3587Z" fill="white"/>
<path d="M0 45.7149C0.31885 42.3073 0.523303 39.0336 0.973588 35.7794C1.21698 34.1316 2.29523 32.8051 3.80916 32.0603C6.83458 30.5756 9.91599 29.2004 13.1167 27.7132L17.2763 40.5792L17.5416 40.5548C18.0284 39.2064 18.5298 37.8775 18.9484 36.5023C19.0312 36.2321 18.7951 35.8427 18.6588 35.5287C18.34 34.7985 17.8994 34.0975 17.6852 33.3381C17.2398 31.8363 17.8434 30.9041 19.389 30.6267C20.4502 30.4441 21.5114 30.5172 22.2879 31.408C23.018 32.2501 22.8112 33.3113 22.2879 34.005C20.4624 36.4195 21.9325 38.4592 22.8696 40.9029C24.3299 36.3197 25.71 31.9946 27.0925 27.6597L34.8082 31.352C28.5018 34.044 25.5591 38.6904 26.5327 45.7124L0 45.7149Z" fill="white"/>
<path d="M35.5676 45.3084C36.4682 45.4739 37.2154 45.7124 37.9602 45.7003C38.3448 45.7003 38.7245 45.2451 39.1066 44.9944C38.8632 44.6682 38.6734 44.2642 38.3545 44.0354C37.7582 43.6338 37.0572 43.3953 36.4512 43.0107C34.7255 41.9179 34.7693 39.8928 36.4512 38.7367C36.8771 38.4446 37.0986 37.8677 37.4564 37.4588C37.6414 37.2471 37.9067 36.9988 38.1501 36.972C38.3935 36.9453 38.6855 37.1692 38.9022 37.3469C39.3184 37.6876 39.6324 38.2377 40.1021 38.4008C40.8786 38.671 40.9808 39.0604 40.7861 39.7638C40.5597 40.5694 40.0753 40.3066 39.5691 40.1484C39.3062 40.0632 38.9995 39.9171 38.7634 39.9829C38.3086 40.1395 37.8674 40.3333 37.4442 40.5621C37.7192 40.9102 37.931 41.3337 38.2888 41.5844C38.7367 41.9106 39.3013 42.0712 39.7881 42.3511C41.8375 43.5194 41.8765 45.8779 39.8611 47.0852C39.3403 47.3967 38.7756 47.5939 38.8754 48.3971C38.8924 48.5382 38.4665 48.8839 38.2401 48.8839C37.948 48.8839 37.4247 48.6819 37.398 48.5042C37.2641 47.6669 36.7213 47.4722 36.0155 47.2872C34.7352 46.927 35.1831 46.1092 35.5676 45.3084Z" fill="#F9A543"/>
</svg>
