<svg width="58" height="73" viewBox="0 0 58 73" fill="none" xmlns="http://www.w3.org/2000/svg">
<path d="M55.4577 72.2332H2.04109C0.609485 71.3635 0.00107536 70.118 0.00465436 68.4001C0.0356724 47.2267 0.0440042 26.0533 0.0296882 4.87986C0.0296882 2.01666 1.04255 1.01456 3.8807 1.01098C15.448 1.01098 27.0118 1.01096 38.597 0.989487C39.2726 0.965678 39.9454 1.08873 40.5688 1.3501C41.1923 1.61146 41.7516 2.00497 42.2082 2.50344C46.7417 7.11081 51.3121 11.6836 55.9194 16.2218C56.4536 16.7283 56.8721 17.3442 57.1463 18.0274C57.4206 18.7105 57.5441 19.4448 57.5085 20.1801C57.4799 36.1353 57.4799 52.0905 57.5085 68.0457C57.5049 69.8567 57.0611 71.2847 55.4577 72.2332ZM51.4493 66.2097C51.4886 65.7802 51.5316 65.5476 51.5316 65.3185C51.5316 50.6661 51.5196 36.0148 51.4958 21.3648C51.4382 20.6267 51.1227 19.9324 50.6046 19.4035C46.8789 15.5775 43.128 11.773 39.2949 8.0616C38.5755 7.41763 37.6542 7.04433 36.6894 7.00581C27.0798 6.93066 17.4702 6.95571 7.86055 6.96287C7.28433 6.96287 6.70811 7.01655 6.07105 7.04518V66.2097H51.4493Z" fill="#F9A543"/>
<path d="M18.8228 12.3242V21.3612H27.9314C28.479 27.0625 24.2486 32.0553 18.7906 32.406C17.4562 32.4861 16.1191 32.2995 14.8575 31.8572C13.5959 31.4148 12.4351 30.7255 11.4429 29.8296C10.4506 28.9336 9.64688 27.849 9.07848 26.639C8.51007 25.4289 8.18842 24.1177 8.13235 22.782C7.87466 16.9662 12.4916 12.3672 18.8228 12.3242Z" fill="#F9A543"/>
<path d="M26.8829 46.6147C31.3316 46.6147 35.7803 46.6147 40.229 46.6147C42.516 46.6147 43.9189 47.7242 43.9798 49.5208C44.0406 51.3783 42.5768 52.6023 40.2218 52.6023C31.2051 52.6023 22.1884 52.6023 13.1717 52.6023C10.7344 52.6023 9.42446 51.4821 9.47815 49.5101C9.52826 47.6311 10.8024 46.6218 13.1824 46.6182C17.7492 46.6111 22.316 46.6183 26.8829 46.6147Z" fill="#F9A543"/>
<path d="M26.7719 57.9781C31.3316 57.9781 35.8913 57.9781 40.4509 57.9781C42.5983 57.9781 43.944 59.1484 43.9511 60.9092C43.9583 62.6701 42.6162 63.8834 40.4759 63.8905C31.2946 63.9168 22.1085 63.9168 12.9176 63.8905C10.7058 63.8905 9.46745 62.7596 9.46387 60.9307C9.46387 59.0195 10.7058 57.9816 13.0715 57.9781C17.6491 57.9709 22.2087 57.9781 26.7719 57.9781Z" fill="#F9A543"/>
<path d="M23.3931 42.2124C19.8928 42.2124 16.3926 42.2446 12.8923 42.2124C10.659 42.1838 9.35985 40.9061 9.48511 38.9913C9.49936 38.6183 9.5873 38.2519 9.74388 37.913C9.90046 37.5742 10.1226 37.2698 10.3974 37.0173C10.6722 36.7648 10.9943 36.5691 11.3451 36.4417C11.6959 36.3143 12.0685 36.2576 12.4414 36.2748C19.795 36.2414 27.151 36.2414 34.5095 36.2748C34.8973 36.2653 35.2831 36.3328 35.6447 36.4733C36.0063 36.6139 36.3363 36.8247 36.6159 37.0936C36.8955 37.3625 37.1189 37.6842 37.2734 38.0401C37.4279 38.3959 37.5103 38.7788 37.5159 39.1667C37.5445 40.8166 36.3061 42.1337 34.4272 42.173C30.7515 42.2446 27.0723 42.1945 23.3931 42.1945V42.2124Z" fill="#F9A543"/>
<path d="M31.1956 20.1622H20.1902V9.35721C26.1492 8.58772 31.056 13.3621 31.1956 20.1622Z" fill="#F9A543"/>
</svg>
