<svg width="46" height="60" viewBox="0 0 46 60" fill="none" xmlns="http://www.w3.org/2000/svg">
<path d="M20.7788 0.0927868C14.9468 1.01667 10.1397 5.21744 8.49405 10.8618C8.29195 11.5691 8.07541 12.594 8.03211 13.157C7.94549 14.0953 7.90218 14.1964 7.32476 14.7738C6.5308 15.5967 6.40088 16.203 6.40088 19.1189C6.41531 22.3237 6.57411 22.9155 7.61347 23.6806C7.91662 23.926 8.21977 23.9838 8.99929 23.9838C10.0964 23.9838 10.5439 23.7528 11.1358 22.9011C11.4389 22.4391 11.4534 22.3092 11.4534 19.2056C11.4534 17.4444 11.3956 15.8421 11.3234 15.6544C11.2513 15.4667 10.9481 15.077 10.645 14.7883L10.0964 14.2541L10.2841 13.0993C11.0636 7.93134 14.9179 3.77387 20.057 2.53241C21.9047 2.0849 24.3155 2.11378 26.1921 2.59015C31.1869 3.88936 34.9546 8.01795 35.7197 13.0849L35.8929 14.2253L35.301 14.8749C34.969 15.2358 34.6514 15.6977 34.5937 15.9287C34.5359 16.1452 34.4782 17.7764 34.4782 19.5376L34.4926 22.7567L33.6842 23.1754C32.6593 23.7239 31.3023 24.157 29.8588 24.4168C28.7328 24.6045 28.7184 24.6045 28.2997 24.258C27.9244 23.9405 27.7656 23.9116 26.3654 23.9116C24.8929 23.9116 24.8496 23.926 24.431 24.3302C24.099 24.6767 24.0124 24.8788 24.0124 25.3984C24.0124 25.947 24.0845 26.1058 24.4599 26.4234C24.8785 26.7698 24.994 26.7987 26.3942 26.7987C27.8378 26.7987 27.9244 26.7843 28.3719 26.3945C28.7617 26.0625 29.0793 25.9614 30.0898 25.8171C31.6199 25.6005 33.0924 25.1097 34.5215 24.3446C35.4742 23.825 35.6619 23.7672 36.0372 23.9116C36.9611 24.2292 38.0727 24.0415 38.7078 23.4352C39.4296 22.7712 39.5162 22.4103 39.574 19.6386C39.6461 16.3184 39.5307 15.64 38.679 14.7883C38.1015 14.1964 38.0582 14.0953 37.9716 13.157C37.8561 11.8145 37.2643 9.80797 36.5569 8.40771C34.5215 4.33686 30.927 1.44974 26.5386 0.367064C25.1961 0.0350437 22.0924 -0.109312 20.7788 0.0927868Z" fill="white"/>
<path d="M21.0243 3.99046C18.4547 4.4524 15.9285 5.9537 14.2973 7.96025C13.3878 9.08624 12.4207 11.0495 12.1031 12.3776L11.8577 13.4458L12.3773 14.2109C12.6516 14.6295 12.9548 15.2214 13.0414 15.5101C13.1136 15.7988 13.1857 17.4156 13.1857 19.0901C13.1857 21.5297 13.1424 22.2948 12.9548 22.8723L12.7094 23.6085L13.4023 24.9943C14.7015 27.6071 16.6214 29.9169 18.628 31.2738C20.0715 32.241 21.0676 32.5874 22.6555 32.6741C24.792 32.804 26.481 32.1688 28.5164 30.4798C29.4403 29.7292 31.2303 27.7371 31.2303 27.4772C31.2303 27.2318 29.7001 27.5494 29.1804 27.9103C28.5019 28.3722 27.8235 28.5166 26.3799 28.531C24.7631 28.531 23.897 28.2423 23.1752 27.4628C21.9482 26.1347 22.0059 24.3303 23.3051 23.0888C24.0269 22.4103 24.46 22.2948 26.4665 22.3093C27.9534 22.3237 28.3576 22.3815 28.8051 22.6124C29.3392 22.8867 29.3537 22.8867 30.4363 22.6124C31.0426 22.4536 31.8221 22.2082 32.1686 22.0494L32.8182 21.7607V18.9025C32.8182 17.329 32.8904 15.7988 32.9626 15.5101C33.0492 15.2214 33.3523 14.6295 33.6266 14.2109L34.1463 13.4458L33.9009 12.4064C33.4534 10.4721 32.0676 8.10461 30.6384 6.8054C29.5124 5.79491 27.9245 4.87103 26.481 4.40909C25.3405 4.0482 24.8064 3.96159 23.435 3.91828C22.5256 3.88941 21.4285 3.91828 21.0243 3.99046Z" fill="white"/>
<path d="M14.0374 32.6452C13.9941 32.6741 12.9981 32.7896 11.7999 32.8762C7.77239 33.1649 5.96793 33.7856 4.19235 35.4457C3.06637 36.514 2.15692 37.8276 1.34853 39.531C0.0204517 42.3604 -0.297132 44.2082 0.265857 45.8538C0.915461 47.7882 3.485 49.2751 7.98892 50.3144C9.10046 50.5598 11.9154 51.0507 12.2907 51.0507C12.3774 51.0507 12.4784 50.7764 12.5361 50.4299C12.6805 49.5494 13.1136 48.7843 13.6766 48.4234C14.1241 48.1347 14.1529 48.0625 14.0808 47.4995C13.9508 46.2869 14.1241 45.8827 15.3944 44.5835C16.8668 43.0822 17.4154 42.7646 18.5269 42.8512C19.3065 42.909 19.3786 42.8801 19.624 42.4903C19.7828 42.2738 20.187 41.9129 20.5479 41.6964C21.1542 41.3355 21.2986 41.3066 23.002 41.3066C24.7054 41.3066 24.8497 41.3355 25.456 41.6964C25.8169 41.9129 26.2211 42.2738 26.3799 42.4903C26.6253 42.8801 26.6975 42.909 27.477 42.8512C28.5886 42.7646 29.1516 43.0822 30.6096 44.5979C31.8799 45.926 32.0531 46.3013 31.9232 47.4995C31.851 48.0625 31.8799 48.1347 32.3274 48.4234C32.8759 48.7843 33.3523 49.6071 33.4822 50.4588C33.54 50.7908 33.6555 51.0507 33.7421 51.0507C33.8287 51.0507 34.6804 50.9207 35.6332 50.7619C40.3103 49.9969 43.7748 48.6399 45.0885 47.0376C46.1712 45.7239 46.2867 43.8906 45.4494 41.5376C44.4822 38.7659 43.3707 36.9182 41.8116 35.4457C40.0505 33.7856 38.2171 33.1649 34.2618 32.8762C33.1069 32.7896 32.0242 32.6885 31.8655 32.6308C31.62 32.5731 31.5334 32.6308 31.4613 32.9051C31.4179 33.1072 31.0138 33.7712 30.5662 34.3919C29.1371 36.3841 25.2828 40.8158 25.124 40.657C25.0807 40.6137 24.8064 39.7043 24.5322 38.6505L24.0269 36.7161L24.3734 36.2974C24.7198 35.8932 25.023 35.0704 25.023 34.5507C25.023 34.3342 24.8353 34.3053 23.002 34.3053C21.1687 34.3053 20.981 34.3342 20.981 34.5507C20.981 35.0704 21.2841 35.8932 21.6162 36.283L21.9626 36.6872L21.4574 38.636C21.1831 39.7043 20.9232 40.6137 20.8944 40.6426C20.6201 40.9313 14.9902 34.1321 14.6004 33.035C14.4416 32.6164 14.2107 32.4576 14.0374 32.6452Z" fill="white"/>
<path d="M21.5727 43.6452C21.3995 43.804 21.2407 44.1793 21.1685 44.6123C21.053 45.2764 21.0097 45.3341 20.4467 45.5795L19.8404 45.8394L19.263 45.4063C18.931 45.1753 18.5268 44.9877 18.3391 44.9877C17.9205 44.9877 16.2171 46.6766 16.2171 47.0953C16.2171 47.2541 16.4192 47.6583 16.6501 47.9759C17.0832 48.5677 17.0832 48.5821 16.8667 49.1451C16.6357 49.7226 16.3614 49.8958 15.6974 49.8958C15.5242 49.8958 15.221 50.0257 15.0045 50.1989C14.658 50.4732 14.6292 50.5743 14.6292 51.7147C14.6292 53.1727 14.8024 53.4181 15.8851 53.5624C16.5635 53.6491 16.6213 53.6779 16.8522 54.2554L17.0832 54.8616L16.6501 55.4679C16.4192 55.8 16.2171 56.2042 16.2171 56.3485C16.2171 56.6372 17.3864 57.9364 18.0071 58.3551C18.368 58.586 18.4113 58.5716 19.1042 58.1241C19.8115 57.6766 19.8693 57.6622 20.4178 57.8354C20.8365 57.9797 21.0097 58.1241 21.0674 58.3984C21.3273 59.5244 21.4428 59.8419 21.6449 59.9141C21.9336 60.0296 24.0701 60.0296 24.3588 59.9141C24.5609 59.8419 24.6763 59.5244 24.9362 58.3984C24.9939 58.1241 25.1527 57.9797 25.6002 57.8498C26.1632 57.691 26.2354 57.7055 26.8561 58.1097C27.2315 58.3551 27.5779 58.5572 27.6357 58.5572C27.8233 58.5572 29.2958 57.2868 29.5412 56.9115C29.8876 56.4063 29.8443 56.1609 29.3535 55.4679L28.9204 54.8616L29.1514 54.2554C29.3824 53.6779 29.4401 53.6491 30.1186 53.5624C31.2013 53.4181 31.3745 53.1727 31.3745 51.7147C31.3745 50.5743 31.3456 50.4732 30.9992 50.1989C30.7826 50.0257 30.4795 49.8958 30.3062 49.8958C29.6422 49.8958 29.3679 49.7226 29.137 49.1451C28.9204 48.5821 28.9204 48.5677 29.3535 47.9759C29.5845 47.6583 29.7866 47.2541 29.7866 47.0808C29.7866 46.9076 29.4112 46.4168 28.8771 45.8827C27.8378 44.8433 27.5346 44.7856 26.7118 45.4207L26.1488 45.8394L25.5569 45.5795C24.9939 45.3341 24.9506 45.2764 24.8351 44.6123C24.6763 43.5874 24.3876 43.3998 23.0018 43.3998C22.1501 43.3998 21.8037 43.4575 21.5727 43.6452ZM23.9546 48.5244C25.427 48.9575 26.322 50.1556 26.322 51.7147C26.322 52.7974 25.9611 53.5769 25.1816 54.2409C23.8824 55.3669 22.1212 55.3669 20.822 54.2409C18.8444 52.5664 19.5228 49.3039 21.9913 48.5244C22.843 48.2646 23.0884 48.2646 23.9546 48.5244Z" fill="white"/>
</svg>
