<svg width="68" height="67" viewBox="0 0 68 67" fill="none" xmlns="http://www.w3.org/2000/svg">
<path d="M14.1255 30.2895H8.14605C4.1055 30.2895 1.57363 28.6671 0.700994 25.5176C-0.171642 22.3682 1.22642 19.6519 4.72311 17.6885C4.87367 15.8879 4.77842 14.115 5.19937 12.465C6.32089 8.1018 9.28908 5.39784 13.6676 4.65426C17.9694 3.91989 21.6197 5.37939 24.2069 9.01435C24.7722 9.80709 25.2393 10.1175 26.2901 9.96382C29.3997 9.506 32.036 10.6029 33.9718 13.058C34.6846 13.9583 35.4036 14.4192 36.5098 14.3516C36.6134 14.3365 36.7192 14.3481 36.8171 14.3854C39.392 15.679 40.9559 14.2748 42.6244 12.4865C45.6971 9.20794 48.9234 6.09842 52.1097 2.9428C55.7262 -0.639925 61.128 -0.744425 64.5694 2.68159C68.0107 6.10761 67.9493 11.537 64.3973 15.1413C60.7377 18.8284 57.069 22.5156 53.3541 26.1629C52.5122 26.9894 52.0943 27.6992 52.5583 28.9283C52.9455 29.9484 52.9547 31.1129 53.1452 32.3082L55.1609 32.4803C55.6433 33.7862 54.6692 35.6759 56.5374 36.4748C58.4609 37.3105 59.2106 35.5529 60.2983 34.7233L64.7537 39.2985C64.1177 40.3555 62.2157 41.0499 63.0392 42.9857C63.8073 44.774 65.5219 44.1841 66.9814 44.4114V50.5568C65.6018 50.9685 63.7336 50.145 63.0084 52.0931C62.3171 53.952 64.0531 54.6465 64.7752 55.7035L60.3168 60.1803C59.2352 59.5658 58.5777 57.6392 56.6511 58.4228C54.8075 59.1756 55.4927 60.9085 55.2131 62.3742H49.0678C48.6468 61.0837 49.4703 59.2309 47.6021 58.4443C45.6633 57.627 44.9811 59.5105 43.6937 60.3063L42.8825 59.6088C41.9607 60.5859 41.128 61.4524 40.3168 62.3466C40.0477 62.6352 39.8127 62.9537 39.6163 63.296C38.3288 65.5759 36.4176 66.7927 33.7782 66.7835C31.1941 66.7835 29.3444 65.5544 28.0385 63.3697C27.7313 62.8671 27.3207 62.4356 26.834 62.1038C25.6541 61.3049 24.8921 60.1557 25.3775 58.8714C25.9521 57.3565 25.5035 56.106 25.0273 54.4713C23.0546 56.4716 21.2141 58.4105 19.2845 60.2571C18.5953 60.9188 17.7887 61.4461 16.9062 61.8119C13.0408 63.3667 9.13238 64.8262 5.2301 66.3349C3.88735 66.8572 2.55381 67.1553 1.38005 66.0276C0.150987 64.8446 0.43982 63.465 0.983681 62.0639C2.49543 58.1769 3.9488 54.2685 5.50664 50.3877C5.87464 49.506 6.40519 48.7013 7.07062 48.0157C9.62093 45.3762 12.2542 42.8167 14.823 40.1958C15.1559 39.8712 15.3516 39.4313 15.3699 38.9667C15.0196 36.1736 14.5802 33.3898 14.1255 30.2895ZM11.3601 23.7693C11.2034 23.2193 11.1081 22.7707 10.9483 22.3405C10.6927 21.6454 10.2619 21.0281 9.69764 20.5483C9.13342 20.0685 8.45487 19.7425 7.72772 19.6019C7.00056 19.4613 6.24941 19.5109 5.54701 19.7457C4.8446 19.9805 4.21472 20.3928 3.71835 20.9424C3.14145 21.53 2.75785 22.2798 2.61892 23.0915C2.47998 23.9031 2.59235 24.7378 2.94097 25.4838C3.72142 27.3274 5.20859 28.1509 7.18431 28.1478H32.8687C33.9902 28.1478 35.1148 28.2001 36.2302 28.114C36.9992 28.0565 37.7206 27.7199 38.2588 27.1676C38.797 26.6153 39.1147 25.8853 39.1523 25.1151C39.2083 24.3724 39.0054 23.6331 38.578 23.0231C38.1506 22.4131 37.5251 21.9699 36.8078 21.769C36.0626 21.5663 35.2693 21.6374 34.572 21.9694C33.8746 22.3015 33.3194 22.8724 33.007 23.5788C32.8226 23.9751 32.6997 24.3992 32.5645 24.7495H30.5765C30.7178 22.9981 31.4983 21.7383 32.6936 20.6014C33.2947 20.0455 33.6845 19.2984 33.7966 18.4874C33.9687 15.4147 31.5413 12.6493 28.3826 12.0348C25.4298 11.4817 22.2557 13.3806 21.2387 16.2812C20.9683 17.0494 20.9867 17.5533 21.8532 17.9712C23.2851 18.6625 24.0041 19.9008 24.0532 21.5877H22.1451C21.9965 21.2269 21.8251 20.8759 21.632 20.5368C20.7102 19.1326 18.6884 19.0835 18.0062 20.5952C17.4132 21.9134 16.6235 21.7321 15.5696 21.517C15.6433 19.7349 16.5467 18.6103 17.9663 17.8022C18.2981 17.6117 18.802 17.3689 18.8451 17.0893C19.2752 14.4038 20.8546 12.4803 22.9471 10.9717C20.5227 7.03251 16.1872 5.58222 12.1712 7.28447C8.21673 8.94371 6.17955 13.058 7.22118 17.2737C11.4645 18.4259 13.5017 20.6536 13.09 23.7785L11.3601 23.7693ZM30.5826 30.2895C30.5826 31.242 30.6379 32.0501 30.5826 32.8459C30.472 34.2133 31.1081 34.625 32.3986 34.5943C34.9981 34.5297 37.6006 34.5359 40.2001 34.5943C42.1358 34.6373 43.5155 36.103 43.454 37.9158C43.3987 39.6734 42.0344 40.967 40.1355 40.9885C38.3503 41.0223 36.5651 40.9885 34.783 40.9885C33.1514 40.9885 31.5137 40.9117 29.8913 41.0377C29.3904 41.0776 28.6161 41.6153 28.527 42.0393C28.3365 42.9611 29.1416 43.1731 29.9189 43.167C30.3276 43.167 30.7363 43.167 31.148 43.167C33.6369 43.2008 34.869 44.4483 34.8813 46.9587C34.8813 48.5257 34.8813 50.0897 34.8813 51.792C36.4176 51.792 37.788 51.8257 39.1492 51.7674C39.3337 51.7498 39.512 51.6917 39.6713 51.5971C39.8307 51.5026 39.9672 51.374 40.071 51.2205C41.552 48.0925 44.13 45.8924 46.4837 43.505C48.2535 41.7075 49.7776 39.7655 50.4996 37.2859C52.7734 29.4568 47.9247 20.3863 39.7976 17.3812C38.5531 16.9234 37.2288 16.6776 35.7877 16.2935C35.8461 17.5748 35.8922 18.5212 35.9352 19.4399C39.5272 20.0544 41.5059 22.2514 41.297 25.278C41.0881 28.3045 38.676 30.2833 35.121 30.2864L30.5826 30.2895ZM16.9154 30.3571C16.178 33.737 16.4883 36.8834 18.1691 39.7809C18.9088 41.0012 19.7828 42.1349 20.7747 43.1608C23.196 45.7572 26.029 48.0034 27.5561 51.3464C27.6293 51.4694 27.7297 51.5739 27.8495 51.6522C27.9693 51.7305 28.1054 51.7804 28.2474 51.7981C29.7039 51.8411 31.1572 51.8196 32.5491 51.8196C32.6177 51.6624 32.6702 51.4988 32.7058 51.3311C32.7058 50.2126 32.7304 49.0911 32.7304 47.9726C32.7304 45.3209 32.7304 45.321 30.1402 45.3087C27.7589 45.3087 26.3116 44.1011 26.3024 42.1346C26.2932 40.1681 27.7773 38.8929 30.1033 38.8868C33.262 38.8868 36.4176 38.8868 39.5763 38.8868C40.3506 38.8868 41.254 38.9667 41.2786 37.8697C41.3062 36.6898 40.3568 36.7298 39.5302 36.7298C36.983 36.7298 34.4358 36.7544 31.8916 36.7298C29.7653 36.7083 28.4932 35.4177 28.4502 33.2945C28.4318 32.342 28.4502 31.3895 28.4502 30.3786L16.9154 30.3571ZM53.0868 60.3924C53.9134 56.2781 56.4975 55.2241 60.6271 57.2398L61.9053 55.9032C59.6347 52.3358 60.7132 49.7917 64.9934 48.3598V46.6022C60.6179 45.0659 59.8989 43.3544 61.7947 38.9513L60.5657 37.6055C59.1553 38.5795 57.7235 39.3999 56.2178 38.5887C54.9642 37.9127 53.941 36.8097 52.9977 36.0415C52.7212 37.0524 52.334 38.4627 51.9469 39.87C56.8969 40.7672 59.4841 43.2991 59.6009 47.3212C59.6992 50.7196 57.1919 54.0073 53.9287 54.7663C49.7222 55.7465 46.8001 53.8752 44.4926 48.7224C41.1649 51.1252 41.34 55.9001 43.7644 57.2122C46.3239 55.2887 50.1002 55.7127 51.2094 60.3924H53.0868ZM61.8716 14.6097C64.2959 12.7077 65.5587 10.2772 64.7721 7.08474C64.173 4.62661 61.9269 2.71539 59.1799 2.37125C56.31 2.01482 54.2636 3.41596 52.7273 5.41012C55.8368 8.52887 58.8358 11.5462 61.8746 14.6035L61.8716 14.6097ZM16.7925 41.7997L8.97875 49.5889L12.2388 53.0825L19.9789 45.4869L16.7925 41.7997ZM21.9607 47.2352L14.147 55.0428L17.5054 58.5426C20.0035 56.0445 22.4677 53.5741 25.0611 50.9746L21.9607 47.2352ZM7.23655 51.8165C6.88626 52.6892 6.49911 53.611 6.14575 54.5451C4.49266 58.9113 4.49573 58.9144 7.9156 62.0762C8.02929 62.1776 8.12147 62.3312 8.2536 62.3834C8.50863 62.4787 8.83126 62.6384 9.04942 62.5586C11.2218 61.7566 13.3788 60.9116 15.4682 60.1004L7.23655 51.8165ZM52.0083 52.9104C52.7357 52.9085 53.4554 52.7622 54.1258 52.48C54.7962 52.1979 55.4039 51.7855 55.9138 51.2668C56.4237 50.7481 56.8255 50.1333 57.0961 49.4581C57.3666 48.7829 57.5005 48.0608 57.4899 47.3335C57.4469 46.2584 57.085 45.2203 56.4503 44.3515C55.8156 43.4826 54.9368 42.8221 53.9256 42.4542C51.8516 41.6921 50.7301 42.0455 48.9111 44.0212C48.4625 44.5098 47.9094 44.9246 47.5622 45.4715C47.175 46.086 46.7541 46.7989 46.7295 47.4841C46.6281 50.3847 49.0985 52.8582 52.0114 52.9043L52.0083 52.9104ZM51.1756 24.8816L56.5282 19.5628L53.2435 16.1644L48.4717 20.8134L51.1756 24.8816ZM46.5666 18.9022L51.2279 14.2164L47.9247 10.7043L42.4831 16.1552L46.5666 18.9022ZM49.4119 8.59035L58.5807 17.7745L59.8958 16.4902L50.9021 7.34283L49.4119 8.59035ZM33.9441 58.18C32.3156 58.18 30.6779 58.0848 29.0617 58.2323C28.4471 58.2876 27.9002 58.9144 27.3225 59.2831C27.8787 59.6734 28.4256 60.3801 28.9971 60.3985C32.2029 60.5091 35.4098 60.5091 38.6176 60.3985C39.183 60.3801 39.7238 59.661 40.2769 59.2677C39.6931 58.9052 39.1369 58.2937 38.5224 58.2323C37.0106 58.0786 35.4712 58.18 33.9441 58.18ZM33.6891 56.1244C35.419 56.1244 37.1551 56.2043 38.8758 56.0722C39.3674 56.0353 39.7975 55.3778 40.2769 55.0029C39.8098 54.6311 39.3551 53.9521 38.8727 53.9398C35.5143 53.8445 32.1528 53.8384 28.7943 53.9398C28.2966 53.9398 27.8172 54.6864 27.3287 55.0889C27.8203 55.4331 28.2904 56.0353 28.8066 56.0783C30.4106 56.1982 32.0606 56.1244 33.6891 56.1244ZM37.3394 62.6108H30.1893C31.7134 65.5759 36.476 65.1089 37.3394 62.6108ZM6.20106 63.677L3.65382 61.0714C3.34656 61.8703 3.02086 62.6077 2.77197 63.3667C2.43398 64.396 2.81191 64.8631 3.88734 64.5404C4.65244 64.31 5.38988 63.9812 6.20106 63.677Z" fill="#F9A543"/>
<path d="M48.9175 47.5179C48.9015 47.0986 48.9714 46.6805 49.1231 46.2894C49.2748 45.8982 49.505 45.5422 49.7995 45.2434C50.094 44.9446 50.4466 44.7092 50.8355 44.5519C51.2244 44.3945 51.6414 44.3185 52.0609 44.3284C52.9054 44.3145 53.721 44.6364 54.3283 45.2236C54.9356 45.8107 55.2849 46.6149 55.2995 47.4595C55.2948 48.3065 54.9587 49.1181 54.3632 49.7205C53.7677 50.3229 52.96 50.6683 52.1131 50.6827C51.6939 50.6905 51.2774 50.6142 50.8882 50.4583C50.4989 50.3025 50.1449 50.0701 49.847 49.7751C49.5491 49.48 49.3134 49.1283 49.1537 48.7406C48.9941 48.3529 48.9138 47.9371 48.9175 47.5179ZM52.1285 45.96C51.6153 46.6606 51.0684 47.0846 51.1022 47.4533C51.136 47.8221 51.7167 48.2092 52.0578 48.5871C52.4327 48.2338 53.0472 47.9204 53.1117 47.5179C53.1762 47.1153 52.6232 46.7006 52.1285 45.96Z" fill="#F9A543"/>
</svg>
