<svg width="78" height="83" viewBox="0 0 78 83" fill="none" xmlns="http://www.w3.org/2000/svg">
<path d="M34.0369 51.6584C31.12 51.1717 28.3677 50.7637 25.6441 50.2268C25.1895 50.1338 24.6169 49.4466 24.5238 48.9563C23.6125 44.1637 23.6028 39.2432 24.4952 34.447C24.574 34.0139 24.9533 33.3733 25.2969 33.2946C28.1601 32.6861 31.0627 32.1887 34.0369 31.6447V51.6584Z" fill="#F9A543"/>
<path d="M44.3159 51.6118V31.5944C47.2471 32.0776 50.1461 32.5214 53.0236 33.0833C53.3815 33.1477 53.7645 33.7991 53.8468 34.2429C54.7343 39.0421 54.7488 43.9621 53.8898 48.7665C53.8074 49.2353 53.335 49.9153 52.9413 49.9976C50.1139 50.6025 47.2614 51.0892 44.3159 51.6118Z" fill="#F9A543"/>
<path d="M42.7411 51.5367H35.3576C35.3576 48.0257 35.3254 44.6542 35.3576 41.2864C35.3898 38.552 35.5437 35.8248 35.5723 33.094C35.5723 32.074 35.8694 31.5479 36.9825 31.5765C38.8078 31.6231 40.6366 31.5765 42.7339 31.5765L42.7411 51.5367Z" fill="#F9A543"/>
<path d="M13.6472 36.6552C14.5169 28.1944 22.9813 18.6205 31.8572 16.7308C27.3047 20.7465 25.032 25.8072 23.5754 31.3296C23.4175 31.8073 23.0817 32.2059 22.6377 32.4427C19.5884 33.9101 16.5033 35.3417 13.6472 36.6552Z" fill="#F9A543"/>
<path d="M46.5098 66.479C51.0336 62.4705 53.2383 57.553 54.7415 52.2167C54.9419 51.5919 55.3716 51.0664 55.944 50.7457C58.8788 49.2819 61.8709 47.9218 64.6768 46.6048C64.9059 53.7413 55.4215 64.6 46.5098 66.479Z" fill="#F9A543"/>
<path d="M64.6696 36.3259C61.7849 35.0124 58.7678 33.6989 55.8187 32.2494C55.2144 31.8668 54.7752 31.2718 54.5875 30.5816C53.1309 25.3384 50.8582 20.589 46.6458 16.8561C54.652 18.388 63.3275 27.0706 64.6696 36.3259Z" fill="#F9A543"/>
<path d="M31.7856 66.4362C23.2712 64.8829 14.8999 55.4951 13.7009 46.8876C16.5641 48.1797 19.6636 49.5433 22.7165 51.0107C23.1889 51.2397 23.5897 51.9233 23.7401 52.4745C25.1788 57.7141 27.4014 62.4957 31.7856 66.4362Z" fill="#F9A543"/>
<path d="M55.6682 49.2461V33.8134C58.9573 34.8871 62.2965 36.0718 64.5119 39.1819C65.7717 40.9428 65.5105 42.922 63.8641 44.6829C61.6165 47.0772 58.671 48.2762 55.6682 49.2461Z" fill="#F9A543"/>
<path d="M22.6987 33.9816V49.3713C19.4132 48.4014 16.1527 47.1416 13.9301 44.1603C12.5737 42.3386 12.8564 40.3379 14.5493 38.5233C16.8076 36.129 19.7532 34.9515 22.6987 33.9816Z" fill="#F9A543"/>
<path d="M25.2039 31.5587C26.2776 24.9268 31.4421 16.7917 36.4956 16.0115C35.8228 20.3743 35.1499 24.8445 34.4126 29.3003C34.3482 29.6976 33.9008 30.2846 33.5572 30.3418C30.8336 30.7999 28.085 31.1543 25.2039 31.5587Z" fill="#F9A543"/>
<path d="M53.1202 31.4047C50.3394 31.0468 47.6945 30.7533 45.0782 30.2952C44.6165 30.2129 44.0045 29.4649 43.9329 28.9495C43.55 26.7341 43.4319 24.4721 43.031 22.2639C42.6445 20.1379 42.0289 18.0586 41.5171 15.9756C46.585 16.9419 52.2291 24.3898 53.1202 31.4047Z" fill="#F9A543"/>
<path d="M41.7676 67.2378L44.3051 53.0112L53.1417 51.6297C52.4545 58.4549 46.814 66.0424 41.7676 67.2378Z" fill="#F9A543"/>
<path d="M36.5206 67.2521C31.4491 65.8598 25.6404 58.0325 25.3362 51.8623C28.1493 52.2202 30.9552 52.5459 33.7433 52.9861C34.0367 53.0327 34.366 53.7341 34.4376 54.1744C35.1606 58.5157 35.8334 62.9 36.5206 67.2521Z" fill="#F9A543"/>
<path d="M35.7905 30.0411C36.424 24.9661 36.5815 20.0199 39.1512 15.5104C41.8748 20.0128 41.8999 25.0234 42.5906 30.0411H35.7905Z" fill="#F9A543"/>
<path d="M36.0662 53.1437H42.2436C42.9379 56.3147 40.8907 66.1104 39.1979 67.61C37.4799 66.1212 35.5831 57.4385 36.0662 53.1437Z" fill="#F9A543"/>
<path d="M43.4567 5.22434C43.4531 5.78723 43.337 6.34372 43.1153 6.86111C42.8936 7.3785 42.5706 7.84634 42.1655 8.23714C41.7604 8.62793 41.2812 8.93383 40.7561 9.13678C40.2311 9.33973 39.6708 9.43563 39.1082 9.41893C38.0027 9.39593 36.9491 8.94532 36.1689 8.16177C35.3887 7.37823 34.9426 6.32277 34.9243 5.21718C34.9345 4.07895 35.3894 2.98985 36.192 2.18263C36.9945 1.3754 38.081 0.914115 39.2191 0.897339C40.3538 0.912437 41.4364 1.37601 42.2304 2.18678C43.0244 2.99754 43.4653 4.08958 43.4567 5.22434Z" fill="#F9A543"/>
<path d="M7.64155 27.6254C7.0768 27.639 6.51524 27.5368 5.99155 27.3249C5.46786 27.1131 4.99312 26.7962 4.59669 26.3937C4.20026 25.9912 3.89056 25.5118 3.68665 24.985C3.48274 24.4581 3.38897 23.8951 3.41114 23.3306C3.41535 22.7679 3.53066 22.2115 3.75043 21.6935C3.97021 21.1755 4.29013 20.706 4.69184 20.3119C5.09356 19.9179 5.56913 19.607 6.09129 19.3972C6.61345 19.1874 7.17188 19.0829 7.73457 19.0895C8.83956 19.1402 9.8848 19.6058 10.6616 20.3933C11.4385 21.1807 11.8898 22.2322 11.9256 23.3377C11.9304 23.9018 11.8228 24.4613 11.6093 24.9834C11.3957 25.5055 11.0804 25.9799 10.6817 26.3789C10.2829 26.778 9.80882 27.0937 9.28688 27.3077C8.76494 27.5217 8.20564 27.6297 7.64155 27.6254Z" fill="#F9A543"/>
<path d="M39.4233 73.8266C39.9855 73.8505 40.5372 73.9871 41.0456 74.2282C41.554 74.4694 42.0088 74.8102 42.383 75.2304C42.7572 75.6507 43.0432 76.1419 43.224 76.6748C43.4047 77.2076 43.4766 77.7714 43.4354 78.3326C43.3583 79.4363 42.8583 80.4676 42.0395 81.2117C41.2207 81.9558 40.1464 82.3553 39.0404 82.3268C37.9036 82.2756 36.8329 81.7783 36.0604 80.9428C35.2879 80.1073 34.8759 79.001 34.9138 77.8638C34.9416 77.3015 35.0808 76.7503 35.3231 76.2422C35.5654 75.7341 35.9062 75.2791 36.3256 74.9036C36.7451 74.5281 37.2348 74.2396 37.7665 74.0547C38.2983 73.8699 38.8614 73.7923 39.4233 73.8266Z" fill="#F9A543"/>
<path d="M66.5057 23.173C66.5655 22.0685 67.0492 21.0297 67.8559 20.273C68.6626 19.5163 69.7302 19.1 70.8362 19.1108C71.9723 19.1619 73.0438 19.6534 73.8236 20.4812C74.6033 21.3091 75.0299 22.4081 75.013 23.5452C74.9938 24.1083 74.8624 24.6618 74.6266 25.1735C74.3908 25.6851 74.0552 26.1446 73.6396 26.5249C73.2239 26.9052 72.7366 27.1987 72.206 27.3883C71.6755 27.5779 71.1124 27.6596 70.5499 27.6288C69.9871 27.6163 69.4327 27.4893 68.9205 27.2557C68.4083 27.022 67.949 26.6865 67.5707 26.2696C67.1923 25.8527 66.9027 25.3632 66.7196 24.8308C66.5365 24.2985 66.4637 23.7344 66.5057 23.173Z" fill="#F9A543"/>
<path d="M7.59878 64.0776C7.0359 64.0805 6.47824 63.9693 5.95948 63.7508C5.44072 63.5324 4.97158 63.2112 4.5803 62.8065C4.18903 62.4019 3.88375 61.9222 3.68284 61.3964C3.48194 60.8705 3.38957 60.3095 3.41132 59.747C3.42341 58.6411 3.8681 57.584 4.65012 56.802C5.43214 56.02 6.48932 55.5753 7.5952 55.5632C8.73154 55.5667 9.82127 56.0153 10.6308 56.8128C11.4403 57.6103 11.9052 58.6932 11.9258 59.8294C11.9135 60.9659 11.4512 62.0513 10.6401 62.8476C9.82903 63.6439 8.73538 64.0862 7.59878 64.0776Z" fill="#F9A543"/>
<path d="M70.7073 64.0774C70.1444 64.0806 69.5867 63.9702 69.0675 63.7528C68.5483 63.5354 68.0783 63.2154 67.6857 62.8121C67.293 62.4087 66.9859 61.9303 66.7825 61.4055C66.5791 60.8807 66.4837 60.3201 66.502 59.7576C66.514 58.6515 66.9572 57.5939 67.7373 56.8098C68.5174 56.0257 69.5728 55.577 70.6787 55.5594C71.8157 55.5601 72.9071 56.0065 73.7187 56.8027C74.5303 57.599 74.9975 58.6816 75.02 59.8184C75.0105 60.9544 74.5514 62.0403 73.7432 62.8385C72.9349 63.6367 71.8433 64.0822 70.7073 64.0774Z" fill="#F9A543"/>
<path d="M64.8519 13.2807L62.7796 15.5569L49.9561 8.14122C50.1887 7.45405 50.5394 6.41614 50.926 5.27802C56.0931 6.90475 60.8448 9.63535 64.8519 13.2807Z" fill="#F9A543"/>
<path d="M27.4801 5.22803C27.8738 6.45563 28.1959 7.45058 28.4142 8.13059L15.5763 15.5463L13.5435 13.2772C17.5487 9.61299 22.3047 6.86613 27.4801 5.22803Z" fill="#F9A543"/>
<path d="M4.89308 48.9813L1.8366 49.6721C0.662541 44.375 0.662541 38.8851 1.8366 33.588L4.91099 34.2143L4.89308 48.9813Z" fill="#F9A543"/>
<path d="M28.4035 75.1224C28.178 75.8382 27.8523 76.826 27.4801 77.9856C22.2971 76.3591 17.5329 73.6179 13.522 69.9543L15.5906 67.6673L28.4035 75.1224Z" fill="#F9A543"/>
<path d="M62.7835 67.703C63.2953 68.2614 64.0075 69.0452 64.8235 69.9435C60.832 73.5985 56.0956 76.3447 50.9405 77.9927C50.554 76.8903 50.1925 75.8453 49.9241 75.0865L62.7835 67.703Z" fill="#F9A543"/>
<path d="M76.5197 49.6828L73.4561 48.967V34.268L76.5519 33.5522C77.7046 38.8685 77.6936 44.3712 76.5197 49.6828Z" fill="#F9A543"/>
</svg>
