<svg width="61" height="80" viewBox="0 0 61 80" fill="none" xmlns="http://www.w3.org/2000/svg">
<path d="M31.8131 0.38623C33.2389 1.30613 34.8089 2.08189 36.06 3.20417C38.1727 5.1053 40.5031 6.18157 43.3517 6.07119C48.8711 5.85961 50.898 9.6312 51.0697 14.0436C51.1454 16.343 51.9424 18.5604 53.348 20.3818C54.3676 21.7115 55.2346 23.1514 55.9329 24.6746C57.1993 27.5171 56.7455 30.194 54.3322 32.1136C51.8363 34.0852 51.0237 36.4463 51.0022 39.5065C50.9654 44.6426 45.9029 48.0432 42.3153 47.2674C40.405 46.8534 38.8718 47.8009 37.4092 48.8772C36.3482 49.6622 35.3609 50.5667 34.2324 51.2352C31.6598 52.7684 29.0197 52.7684 26.4716 51.1493C25.245 50.3644 24.1105 49.3954 22.9269 48.5184C21.6302 47.5154 19.9925 47.0598 18.3642 47.249C14.0529 47.6783 10.0513 44.1489 9.81831 39.8039C9.77231 38.9913 9.79072 38.1757 9.72632 37.3662C9.6006 35.8606 9.22957 34.4808 7.93558 33.4873C2.89759 29.6176 3.57218 25.754 6.74584 21.5041C8.67149 18.9253 9.9195 16.2361 9.87657 12.9735C9.87657 12.1916 10.1832 11.3821 10.4408 10.6216C11.4312 7.77916 13.3875 6.11105 16.463 6.19385C20.0782 6.29197 23.0587 5.08999 25.6345 2.5388C26.5544 1.6189 27.9066 1.10987 29.0626 0.413817L31.8131 0.38623ZM45.8569 26.634C45.8569 18.2016 38.9178 11.2748 30.421 11.2196C22.0192 11.1644 14.9268 18.128 14.8256 26.5329C14.8103 28.581 15.199 30.6121 15.9696 32.5099C16.7402 34.4076 17.8774 36.1348 19.3163 37.5925C20.7552 39.0501 22.4675 40.2097 24.3551 41.0049C26.2427 41.8 28.2685 42.2151 30.3167 42.2263C32.3652 42.2382 34.3956 41.8426 36.2898 41.0626C38.184 40.2826 39.9042 39.1336 41.3503 37.6827C42.7964 36.2318 43.9395 34.5077 44.7132 32.6109C45.4869 30.7141 45.8757 28.6825 45.8569 26.634Z" fill="#F9A543"/>
<path d="M9.97467 52.4679C12.6577 55.6262 16.0429 56.6381 19.8667 56.6381C20.3971 56.6381 20.9828 57.006 21.4458 57.3403C22.979 58.4717 24.5121 59.6615 26.1618 60.934C25.0365 63.0958 23.7824 65.4446 22.5804 67.821C21.1422 70.6665 19.7624 73.5458 18.3182 76.4067C17.7325 77.5627 17.2357 79.2461 15.77 79.0591C14.8685 78.9426 14.0038 77.6118 13.3476 76.6735C12.5071 75.4 11.759 74.0678 11.1092 72.6872C10.6891 71.844 10.2752 71.5128 9.24181 71.7673C7.21956 72.2365 5.17194 72.5887 3.10914 72.8222C1.25095 73.0368 0.717406 72.3776 0.962712 70.5194C0.99173 70.2189 1.06832 69.925 1.18962 69.6485C4.09343 63.9666 6.99726 58.2847 9.97467 52.4679Z" fill="#F9A543"/>
<path d="M34.7109 60.9248C36.3208 59.6983 37.8263 58.5086 39.3932 57.4016C39.9298 57.0183 40.6198 56.6381 41.233 56.632C44.9525 56.5921 48.2273 55.5588 50.8552 52.5047C52.002 54.7063 53.0905 56.7976 54.173 58.8704C55.8533 62.1085 57.5316 65.3485 59.2079 68.5907C59.4358 68.9836 59.6326 69.3936 59.7966 69.8172C60.5325 72.0464 59.7322 73.0798 57.4049 72.7731C55.3964 72.5094 53.4186 72.0372 51.4102 71.7735C51.1476 71.7627 50.8861 71.8123 50.6457 71.9186C50.4054 72.025 50.1928 72.1852 50.0242 72.3868C48.9755 74.0579 48.074 75.8242 47.0805 77.5321C45.7804 79.7613 44.3423 79.7399 43.0943 77.3757C41.0276 73.4263 39.0713 69.4216 37.0567 65.4477C36.2809 63.8808 35.4407 62.3231 34.7109 60.9248Z" fill="#F9A543"/>
<path d="M25.4658 23.071L29.1178 26.3765C31.114 24.4324 33.1378 22.5896 34.999 20.5964C36.0324 19.4864 36.6763 19.557 37.6545 20.6302C40.5951 23.8529 40.9109 22.9544 37.541 26.2599C34.7813 28.9645 32.0216 31.6444 29.0902 34.49C26.7659 32.1718 24.4907 29.9395 22.2799 27.652C22.0836 27.4466 22.1051 26.7322 22.3044 26.493C23.2918 25.3309 24.3497 24.2638 25.4658 23.071Z" fill="#F9A543"/>
</svg>
